<svg xmlns="http://www.w3.org/2000/svg" width="55" height="55" viewBox="0 0 55 55"><g><g opacity=".65"><path fill="#fff" d="M27.504.011c15.168 0 27.484 12.316 27.484 27.492 0 15.17-12.316 27.485-27.484 27.485C12.327 54.988.012 42.672.012 27.503.012 12.327 12.327.01 27.504.01zm-.008 2.798c-.67 0-1.34.047-1.995.102-.343.062-.725.11-1.1.148l-.397.047c-1.372.196-2.697.438-3.99.85 3.374-.24 6.843-.155 9.875 1.348.803 2.579 5.62.047 5.386 2.939.04.04.117.109.156.156-.07.061.063.584.148.147.834.944 2.588 2.886.748 2.644-2.44-.335-1.8 4.473-.046 5.339 1.668.905 2.611-.905.896-1.8-.234-2.246 3.75 1.385 1.996 2.595-.078.038-.133.102-.203.148.086-.32-.117-.016-.093.053-2.011 1.459-.873 4.865-1.653 7.135-1.38 3.078 3.469 1.714 2.744-.703-.881-2.222 3.687-1.207 2.697-2.79 2.775 1.473 2.51-2.48 1.348-3.797.546-2.111 1.965.25 1.294 1.403.101 1.083 1.053 1.332 1.8 1.646.04.023.079.023.149.046.655.303 1.052.716.35 1.95-.826 2.751-3.585 2.907-5.838 2.392-2.283.95-2.705 3.718-3.99 5.59-1.287 2.33-2.355 5.759-.055 7.831 2.206 2.106 4.723.274 6.54-1.152 3.492-.452 3.811 3.655 2.097 5.737-.063.305-.102.499-.102.654 3.68-4.31 5.94-9.852 5.94-15.964 0-.941-.102-1.886-.203-2.798-1.403.764-3.897-3.452-1.348-1.443.506-.03.818-.185 1.052-.404-.296-1.527-.686-3.016-1.247-4.434-.25-.305-.5-.585-.702-.749.008-.313-.023-.608-.047-.898v-.054C45.697 8.5 37.263 2.81 27.503 2.81zm-10.32 3.29C13.41 9.32 7.658 14.377 5.35 19.116c-1.037 2.971-.865 5.964-.748 9.081 1.06 3.018 3.11 5.511 4.739 8.232 1.044 1.31.538 2.806.444 4.24-.015.008.016.048 0 .054-.039.866.063 1.7.803 2.44 1.403 1.809 3.469 3.197 4.24 5.442.008.014-.007.03 0 .046a24.512 24.512 0 0 0 5.434 2.448c.99-.077 2.003-.313 2.946-.648v-.054c1.559-.561 3.056-1.395 4.342-2.346 2.151-2.61-1.871-4.676-4.046-3.936-2.51-1.676-4.334-4.24-7.179-5.487-2.315-2.245-7.53-.85-7.436-5.091.242-2.011-1.38-2.994-2.596-3.944-.935-3.11 4.763-4.263 4.84-.843 1.88-.1 2.542-3.366 4.693-3.841 1.123-.968 4.131.07 3.04-1.896 1.084-1.02 4.24-.998 2.697-3.398-.522-2.33-3.39-3.453-4.342-.795-2.587.7-1.543-4.942 1.1-4.193 1.91.109 1.66-1.552.498-2.09-.007-.086-.03-.124-.1-.054-.22-.086-.43-.156-.695-.148-2.595-1.442 2.596-5.09-.85-6.236zm7.335 3.844c-.102 0-.219.03-.304.046-1.17.234-.819 2.182.6.85.397-.18.6-.85 0-.85-.117-.024-.203-.054-.296-.046zm1.94.443c-1.706.22-3.421 1.863-1.847 3.492 1.146 1.411-1.629 4.31.998 5.045 1.06-2.33 3.913-4.18 3.196-7.04-.296-1.208-1.325-1.62-2.346-1.497zm-5.136 2.845c-.11.008-.218.063-.351.102.686 1.285-.912 2.924.304 4.037 1.388-.569 1.707-4.24.047-4.139zm14.319 5.885c-.328.024-.398.25.195.804-.546 1.301.927 1.379 1.45.5.116-.773-1.1-1.334-1.645-1.304zm-14.366 3.798c-.398.07-.491.318.343.895.101-.024.818-.187.405.25 1.294-.772-.101-1.264-.748-1.145zm-5.238 2.04c-.078-.007-.218.008-.452.102.031.032.062.086.101.103h.047c.242.06.483-.18.304-.204zm-5.09 6.94c-.335.093-.35.442.546.997.249.31.686.607 1.099.443.241-.685-.258-1.106-.795-1.294-.008-.039 0-.023 0-.047a2.379 2.379 0 0 0-.453-.1c-.163-.016-.288-.032-.397 0z"/></g></g></svg>