<svg xmlns="http://www.w3.org/2000/svg" width="66" height="64" viewBox="0 0 66 64"><g><g opacity=".53"><path fill="#fff" d="M4.084-.115h58.63a3.331 3.331 0 0 1 3.331 3.33V51.02a3.331 3.331 0 0 1-3.331 3.33h-20.8c.108 5.783 3.042 8.466 3.042 8.466V64H21.789v-1.184c3.959-2.058 3.247-7.749 3.14-8.465H4.084A3.331 3.331 0 0 1 .752 51.02V3.216A3.331 3.331 0 0 1 4.084-.115zm-.167 6.829v32.48a3.331 3.331 0 0 0 3.331 3.33H59.55a3.331 3.331 0 0 0 3.332-3.33V6.714a3.331 3.331 0 0 0-3.332-3.332H7.25a3.331 3.331 0 0 0-3.332 3.332zm29.033 40.84s-1.142-.802-1.649.424c0 0-.477 1.274.719 2.542 0 0 .633.326 1.068.109 0 0 .816.295 1.142-.03.326-.327.385-.77.603-1.025 0 0-.958-.587-.102-1.792 0 0-.15-.38-.627-.452-.475-.071-1.154.225-1.154.225zm.069-.478s.768.104 1.093-.618"/></g></g></svg>